<?xml version="1.0" ?>
<!-- Uploaded to: SVG Repo, www.svgrepo.com, Generator: SVG Repo Mixer Tools -->
<svg fill="#000000" width="800px" height="800px" viewBox="0 0 32 32" xmlns="http://www.w3.org/2000/svg">
<g data-name="people" id="people-25">
<path d="M23,8.11A3.09,3.09,0,1,0,19.91,5,3.1,3.1,0,0,0,23,8.11Zm0-4.18A1.09,1.09,0,1,1,21.91,5,1.09,1.09,0,0,1,23,3.93Z"/>
<path d="M25,9H21a3.78,3.78,0,0,0-4,3.5v5A2.71,2.71,0,0,0,19,20v6.82A2.1,2.1,0,0,0,21,29h4a2.1,2.1,0,0,0,2-2.18V20a2.71,2.71,0,0,0,2-2.5v-5A3.78,3.78,0,0,0,25,9Zm2,8.5c0,.31-.43.66-1,.66H25v8.66c0,.11,0,.17,0,.18l-3.92,0a.25.25,0,0,1-.07-.2V18.16H20c-.57,0-1-.35-1-.66v-5c0-.83.9-1.5,2-1.5h4c1.1,0,2,.67,2,1.5Z"/>
<path d="M9,8.11A3.09,3.09,0,1,0,5.91,5,3.1,3.1,0,0,0,9,8.11ZM9,3.93A1.09,1.09,0,1,1,7.91,5,1.09,1.09,0,0,1,9,3.93Z"/>
<path d="M11,9H7a3.78,3.78,0,0,0-4,3.5v5A2.71,2.71,0,0,0,5,20v6.82A2.1,2.1,0,0,0,7,29h4a2.1,2.1,0,0,0,2-2.18V20a2.71,2.71,0,0,0,2-2.5v-5A3.78,3.78,0,0,0,11,9Zm2,8.5c0,.31-.43.66-1,.66H11v8.66c0,.11,0,.17,0,.18L7.07,27a.25.25,0,0,1-.07-.2V18.16H6c-.57,0-1-.35-1-.66v-5c0-.83.9-1.5,2-1.5h4c1.1,0,2,.67,2,1.5Z"/>
</g>
</svg>